<?xml version="1.0" standalone="no"?>
<!DOCTYPE svg PUBLIC "-//W3C//DTD SVG 20010904//EN"
 "http://www.w3.org/TR/2001/REC-SVG-20010904/DTD/svg10.dtd">
<svg version="1.0" xmlns="http://www.w3.org/2000/svg"
 width="284.000000pt" height="601.000000pt" viewBox="0 0 284.000000 601.000000"
 preserveAspectRatio="xMidYMid meet">
<metadata>
Created by potrace 1.16, written by Peter Selinger 2001-2019
</metadata>
<g transform="translate(0.000000,601.000000) scale(0.100000,-0.100000)"
fill="#000000" stroke="none">
<path d="M1413 5865 c10 -25 27 -254 37 -490 5 -126 15 -864 21 -1640 11
-1199 10 -1457 -2 -1725 -28 -627 -8 -874 86 -1061 22 -42 85 -109 103 -109
19 0 187 143 287 244 531 535 817 1280 792 2066 -7 234 -29 395 -77 585 -136
536 -350 982 -643 1345 -46 58 -155 179 -242 270 -169 177 -216 243 -300 423
-27 58 -54 106 -59 107 -4 0 -6 -7 -3 -15z"/>
</g>
</svg>
