<?xml version="1.0" standalone="no"?>
<!DOCTYPE svg PUBLIC "-//W3C//DTD SVG 20010904//EN"
 "http://www.w3.org/TR/2001/REC-SVG-20010904/DTD/svg10.dtd">
<svg version="1.0" xmlns="http://www.w3.org/2000/svg"
 width="293.000000pt" height="290.000000pt" viewBox="0 0 293.000000 290.000000"
 preserveAspectRatio="xMidYMid meet">
<metadata>
Created by potrace 1.16, written by Peter Selinger 2001-2019
</metadata>
<g transform="translate(0.000000,290.000000) scale(0.100000,-0.100000)"
fill="#000000" stroke="none">
<path d="M1209 2885 c-207 -35 -464 -145 -629 -269 -278 -208 -480 -524 -555
-866 -25 -113 -31 -401 -12 -526 33 -207 115 -415 235 -593 213 -317 584 -554
967 -616 115 -19 354 -19 470 0 607 98 1090 571 1202 1175 24 130 24 390 0
520 -112 605 -594 1077 -1202 1175 -110 18 -369 18 -476 0z m508 -84 c284 -58
519 -187 722 -396 189 -194 309 -418 368 -687 27 -126 25 -430 -5 -553 -64
-267 -176 -477 -355 -662 -206 -213 -439 -342 -730 -405 -133 -28 -378 -31
-510 -5 -280 56 -525 185 -723 382 -200 199 -326 430 -385 705 -32 149 -32
391 0 540 58 271 182 501 376 696 225 227 504 364 817 404 109 13 308 5 425
-19z"/>
<path d="M1330 2694 c-299 -38 -541 -150 -742 -342 -75 -72 -178 -196 -178
-216 0 -5 89 -7 218 -3 232 7 242 5 242 -40 0 -31 -26 -42 -114 -49 l-75 -7
226 -671 c124 -369 229 -675 233 -679 4 -5 69 176 145 403 l137 411 -98 268
-98 269 -75 6 c-42 4 -81 12 -88 18 -16 13 -17 54 -1 64 7 4 174 8 371 8 l360
1 10 -22 c18 -40 -13 -61 -104 -69 -43 -3 -79 -9 -79 -13 0 -5 422 -1265 445
-1330 3 -8 8 -12 10 -9 12 12 204 671 215 737 24 144 -10 284 -107 450 -87
148 -107 197 -107 266 1 118 87 215 190 215 l38 0 -30 31 c-36 38 -187 140
-266 180 -74 38 -219 86 -312 105 -73 14 -304 26 -366 18z"/>
<path d="M2544 1917 c-1 -139 -15 -223 -59 -350 -13 -40 -112 -324 -219 -632
-107 -308 -192 -562 -190 -564 6 -7 136 84 202 142 365 319 510 827 371 1302
-18 62 -93 235 -101 235 -2 0 -3 -60 -4 -133z"/>
<path d="M302 1944 c-20 -40 -62 -177 -77 -256 -62 -327 6 -662 191 -939 60
-91 187 -224 278 -293 79 -60 204 -132 213 -123 5 5 -567 1580 -586 1615 -7
13 -10 12 -19 -4z"/>
<path d="M1446 1278 c-70 -197 -346 -1004 -346 -1015 0 -14 10 -17 110 -38
108 -23 270 -29 380 -16 93 12 245 45 268 60 9 5 -44 161 -183 541 -108 294
-197 536 -199 538 -2 1 -15 -30 -30 -70z"/>
</g>
</svg>
